<?xml version="1.0" standalone="no"?>
<!DOCTYPE svg PUBLIC "-//W3C//DTD SVG 1.0//EN" "http://www.w3.org/TR/2001/REC-SVG-20010904/DTD/svg10.dtd">
<svg xmlns="http://www.w3.org/2000/svg" xmlns:xlink="http://www.w3.org/1999/xlink" id="body_1" width="37" height="37">

<g transform="matrix(0.12847224 0 0 0.12847224 0 0)">
	<g transform="matrix(7.02439 0 0 7.02439 -0 17.560976)">
        <path d="M2.59113 21.1611L8.29 23.2274C 9.15568 23.5322 9.73305 24.5323 9.5642 25.4344L9.5642 25.4344L8.50421 31.4029C 8.57623 32.6027 9.69877 33.4719 10.8979 33.2394L10.8979 33.2394L13.6291 32.6741C 14.2903 32.5452 14.9912 31.8876 15.1661 31.2349L15.1661 31.2349L16.8376 25.0513C 16.9442 24.5989 17.3666 24.0562 17.7631 23.8273L17.7631 23.8273L22.6771 20.9902C 23.4013 20.5721 24.0547 20.9075 24.1671 21.7392L24.1671 21.7392L25.3995 32.3154C 25.597 33.9716 26.9311 34.6497 28.3794 33.8135L28.3794 33.8135L30.6036 32.5293C 31.7589 31.8624 32.5888 30.2338 32.4199 28.9059L32.4199 28.9059L31.0105 16.8686C 30.9719 16.523 31.1947 16.0726 31.505 15.8934L31.505 15.8934L36.6776 12.907C 38.2984 11.9712 39.5254 9.67658 39.4306 7.8002C 39.3906 7.13362 39.0421 6.53015 38.4849 6.1622C 36.9073 5.14193 34.2893 5.06715 32.6685 6.00289L32.6685 6.00289L27.4959 8.9893C 27.1856 9.16848 26.6841 9.13614 26.4042 8.92995L26.4042 8.92995L16.6941 1.70799C 15.6459 0.887847 13.8205 0.792256 12.6653 1.45922L12.6653 1.45922L10.4411 2.74337C 8.99275 3.57957 8.91297 5.07396 10.2485 6.07309L10.2485 6.07309L18.7915 12.4285C 19.4629 12.9145 19.4194 13.6753 18.6952 14.0934L18.6952 14.0934L13.7812 16.9305C 13.3847 17.1594 12.7035 17.2538 12.2684 17.1372L12.2684 17.1372L6.07748 15.493C 5.42476 15.3181 4.52213 15.5863 4.06264 16.1045L4.06264 16.1045L2.20746 18.1871C 1.38661 19.0748 1.56084 20.4915 2.59113 21.1611z" stroke="#000000" stroke-width="2" stroke-linecap="square" fill="none" />
	</g>
</g>
</svg>