<svg width="32" height="44" viewBox="0 0 32 44" fill="none" xmlns="http://www.w3.org/2000/svg">
<g clip-path="url(#clip0_679_406)">
<path d="M16.0216 19.6773C16.9474 19.6773 17.8717 19.6773 18.7974 19.6773C20.281 19.6854 21.729 20.4555 22.048 21.7615C22.3773 23.1148 23.2467 23.3097 24.4959 23.3421C26.1042 23.3828 27.6308 23.759 28.9542 24.6522C30.8918 25.9582 31.8962 27.7108 31.9837 29.9059C32.0876 32.5002 31.7033 35.031 31.0105 37.5523C30.242 40.3443 28.3979 42.1023 25.4277 42.9657C23.1177 43.6356 20.735 43.8711 18.336 43.9482C15.342 44.0457 12.3467 44.0213 9.3765 43.5693C8.01061 43.3758 6.67516 43.0332 5.39893 42.5488C2.82783 41.546 1.5534 39.6581 0.902094 37.2708C0.23015 34.8174 -0.0693681 32.2915 0.0119278 29.7638C0.112813 26.5442 3.03554 23.694 6.55467 23.4247C7.36323 23.3624 8.17026 23.2718 8.98031 23.2122C9.1092 23.2172 9.23555 23.1784 9.33499 23.1035C9.43443 23.0285 9.49997 22.9226 9.51892 22.8062C9.62593 22.4498 9.75372 22.0987 9.9017 21.7547C10.1516 21.1432 10.6004 20.6159 11.188 20.2437C11.7756 19.8714 12.4739 19.6719 13.1893 19.6719C14.1344 19.6773 15.078 19.6773 16.0216 19.6773Z" fill="#292D39"/>
<path d="M15.6165 20.0554C12.6983 20.0554 10.3245 18.2879 9.3542 15.1021C8.88346 13.6251 8.76411 12.0733 9.00409 10.5508C9.06344 10.1908 9.00408 10.0095 8.58719 9.84302C5.9968 8.77793 4.59482 6.93737 4.46278 4.33759C4.41679 3.41597 5.09331 2.95583 6.09475 3.17101C6.73864 3.30635 7.36618 3.51746 8.0338 3.55671C8.8038 3.60273 9.48037 3.3686 10.1213 3.00184C11.2117 2.3793 12.2695 1.69586 13.5543 1.41301C16.1833 0.833783 18.5229 1.35482 20.5822 2.93688C21.1756 3.3889 21.324 4.05204 21.4264 4.69623C21.4839 5.10804 21.6709 5.49583 21.9649 5.81275C23.7334 7.77104 24.0672 9.97157 23.2037 12.3548C22.9886 12.9476 23.0272 13.5728 22.8862 14.1859C22.4678 15.9886 21.732 17.6315 20.1119 18.8279C18.9131 19.7197 17.5155 20.0797 15.6165 20.0554Z" fill="#292D39"/>
<path d="M15.9696 42.2621C13.179 42.3081 10.3913 42.2377 7.67627 41.5516C7.23119 41.4406 6.80094 41.2931 6.37217 41.1456C4.42271 40.4689 3.31295 39.1453 2.78775 37.3264C2.09286 35.0016 1.75726 32.5997 1.79073 30.1903C1.85304 27.3347 3.97464 25.2803 7.09616 25.03C8.95661 24.8797 10.8052 24.697 12.6775 24.6239C12.9935 24.6131 13.1226 24.6984 13.2294 24.965C13.4564 25.5645 13.6329 26.183 14.0914 26.6959C14.2798 26.9057 14.1255 27.1899 14.0914 27.4294C13.5968 30.5936 13.0914 33.7572 12.5751 36.9204C12.4519 37.6824 12.6716 38.3008 13.3362 38.8151C14.0009 39.3294 14.6151 39.8883 15.256 40.4243C15.802 40.8831 16.1996 40.8831 16.7515 40.4243C17.3939 39.8897 18.0066 39.3226 18.6727 38.8165C19.3389 38.3103 19.5496 37.6486 19.4235 36.8744C18.9121 33.7112 18.4047 30.5475 17.9013 27.3834C17.8449 27.0369 17.8286 26.7203 18.1209 26.3995C18.4992 25.9841 18.5897 25.4238 18.8004 24.923C18.8627 24.7742 18.8983 24.6199 19.1638 24.6307C21.453 24.7214 23.763 24.7742 25.9973 25.214C28.4587 25.6971 30.0728 27.5715 30.193 29.8966C30.3413 32.6479 29.8874 35.333 28.9927 37.9598C28.3696 39.7882 26.9068 40.7843 25.0063 41.3689C23.1725 41.9319 21.2706 42.1539 19.3538 42.2594C18.2277 42.3135 17.0972 42.2621 15.9696 42.2621Z" fill="#FBFBFB"/>
<path d="M17.6579 37.2577C17.666 37.2991 17.6624 37.3416 17.6476 37.3813C17.6328 37.4211 17.6073 37.4568 17.5734 37.4851C17.0986 37.8911 16.6238 38.2849 16.1535 38.6882C15.9933 38.8236 15.8939 38.7248 15.7826 38.6314C15.3509 38.2646 14.9222 37.8938 14.48 37.5352C14.4201 37.4847 14.3771 37.4198 14.3561 37.3479C14.3351 37.276 14.3369 37.2002 14.3613 37.1292C14.8064 34.3359 15.2411 31.5426 15.6966 28.7506C15.7233 28.5842 15.6625 28.3108 16.0215 28.3216C16.342 28.3311 16.2841 28.5787 16.3078 28.7276C16.7633 31.5358 17.198 34.3467 17.6431 37.1562C17.6475 37.1901 17.6535 37.2239 17.6579 37.2577Z" fill="#FBFBFB"/>
<path d="M11.4535 22.926C11.5633 21.9543 12.225 21.3277 13.2338 21.3142C15.0794 21.2898 16.9255 21.2898 18.7721 21.3142C19.64 21.325 20.1979 21.7865 20.5005 22.5701C20.6267 22.8935 20.5213 22.9314 20.2038 22.9301C18.1164 22.922 16.0304 22.9301 13.9445 22.9301L11.4535 22.926Z" fill="#FBFBFB"/>
<path d="M17.0334 24.5791C16.7455 25.0866 16.8123 25.8174 15.9726 25.7971C15.1774 25.7795 15.2515 25.0704 14.9652 24.5791H17.0334Z" fill="#FBFBFB"/>
<path d="M14.1447 10.3395C15.2099 10.2651 16.4962 10.5019 17.7424 10.1365C17.9457 10.0769 18.0392 10.2136 18.1475 10.33C18.9261 11.1678 19.9102 11.8266 21.0198 12.2531C21.1682 12.3127 21.3269 12.3492 21.3061 12.5603C21.1666 13.9976 20.8076 15.3631 19.9501 16.6123C18.2692 19.0483 13.2916 19.2784 11.6092 15.9126C10.789 14.2607 10.5009 12.4302 10.7784 10.6345C10.817 10.3639 10.9727 10.326 11.2235 10.33C12.1285 10.3463 13.0394 10.3395 14.1447 10.3395Z" fill="#FBFBFB"/>
<path d="M13.4177 8.71772C12.5557 8.669 11.4653 8.79351 10.3793 8.63653C9.42912 8.48832 8.54627 8.09242 7.83731 7.49662C7.12835 6.90082 6.62356 6.13058 6.38391 5.27887C6.29934 4.95948 6.39431 4.93106 6.69548 5.0082C8.34377 5.42773 9.85558 5.15572 11.2724 4.28822C12.2961 3.66162 13.3332 3.04315 14.6016 2.88616C15.4249 2.771 16.2656 2.81678 17.0679 3.02047C17.8703 3.22416 18.6161 3.5811 19.2558 4.06763C19.5688 4.2977 19.6074 4.65498 19.6578 4.97707C19.9679 6.96784 18.4131 8.64599 16.1951 8.71366C15.345 8.73937 14.5022 8.71772 13.4177 8.71772Z" fill="#FBFBFB"/>
<path d="M21.772 10.7578C20.9051 10.4356 20.1379 9.92448 19.5377 9.26916C20.1827 8.77125 20.7037 8.15342 21.0659 7.45703C21.7216 8.50452 22.0005 9.56149 21.772 10.7578Z" fill="#FBFBFB"/>
</g>
<defs>
<clipPath id="clip0_679_406">
<rect width="32" height="44" fill="white"/>
</clipPath>
</defs>
</svg>
