<svg width="49" height="49" viewBox="0 0 49 49" fill="none" xmlns="http://www.w3.org/2000/svg">
<path d="M18.375 44.9163H30.625C40.8333 44.9163 44.9167 40.833 44.9167 30.6247V18.3747C44.9167 8.16634 40.8333 4.08301 30.625 4.08301H18.375C8.16666 4.08301 4.08333 8.16634 4.08333 18.3747V30.6247C4.08333 40.833 8.16666 44.9163 18.375 44.9163Z" stroke="#0062F5" stroke-width="3" stroke-linecap="round" stroke-linejoin="round"/>
<path d="M18.375 20.4167C20.6302 20.4167 22.4583 18.5885 22.4583 16.3333C22.4583 14.0782 20.6302 12.25 18.375 12.25C16.1198 12.25 14.2917 14.0782 14.2917 16.3333C14.2917 18.5885 16.1198 20.4167 18.375 20.4167Z" stroke="#0062F5" stroke-width="3" stroke-linecap="round" stroke-linejoin="round"/>
<path d="M5.45125 38.6898L15.5167 31.9319C17.1296 30.8498 19.4571 30.9723 20.9067 32.2177L21.5804 32.8098C23.1729 34.1777 25.7454 34.1777 27.3379 32.8098L35.8312 25.5211C37.4237 24.1531 39.9963 24.1531 41.5888 25.5211L44.9167 28.3794" stroke="#0062F5" stroke-width="3" stroke-linecap="round" stroke-linejoin="round"/>
</svg>
