<?xml version="1.0" standalone="no"?>
<!DOCTYPE svg PUBLIC "-//W3C//DTD SVG 1.0//EN" "http://www.w3.org/TR/2001/REC-SVG-20010904/DTD/svg10.dtd">
<svg xmlns="http://www.w3.org/2000/svg" xmlns:xlink="http://www.w3.org/1999/xlink" id="body_1" width="53" height="45">

<g transform="matrix(0.8490566 0 0 0.8490566 0.17924526 -0)">
	<g>
        <path d="M57.9904 18.8414C 58.14 19.4567 58.3358 20.0646 58.4331 20.6868C 58.8363 23.2837 57.8366 25.4134 56.1501 27.2942C 54.7839 28.7805 53.2079 30.0593 51.4719 31.0902C 47.7004 33.3955 43.9598 35.7645 39.997 37.7384C 38.2327 38.6175 36.3903 39.2606 34.3634 38.9792C 32.4055 38.7064 31.0319 37.5438 29.9747 35.968C 29.4115 35.1303 28.9283 34.2463 28.4335 33.3691C 28.2799 33.1031 28.1472 32.9975 27.8304 33.0874C 24.0783 34.1425 20.3238 35.1892 16.5672 36.2275C 16.2562 36.314 16.2392 36.5196 16.1849 36.7583C 15.6773 39.0109 14.3152 40.4892 12.0682 41.0229C 9.78994 41.563 7.87478 40.8333 6.4303 39.0236C 4.81601 37.0038 4.97474 34.0495 6.72608 32.0693C 7.56091 31.1244 8.69832 30.4988 9.94333 30.2998C 11.1884 30.1008 12.4635 30.3407 13.5502 30.9785C 13.9933 31.242 14.278 31.194 14.6782 30.963C 18.5899 28.6877 22.5084 26.4254 26.4337 24.1759C 26.5941 24.1002 26.7326 23.985 26.8362 23.8411C 26.9398 23.6972 27.0051 23.5293 27.0259 23.3533C 27.3235 21.4023 28.0493 19.6285 29.3399 18.1139C 29.5172 17.9069 29.5438 17.7713 29.401 17.5476C 29.0944 17.0501 28.7917 16.5426 28.524 16.0285C 28.3648 15.7192 28.2242 15.7578 27.9742 15.9196C 24.7883 17.9825 21.5981 20.0389 18.4034 22.0887C 16.1615 23.5285 13.9181 24.969 11.6664 26.395C 11.4084 26.5531 11.1256 26.6666 10.83 26.7307C 10.0839 26.9036 9.2939 26.5903 8.97516 26.0281C 8.65641 25.466 8.80139 24.5779 9.35171 24.0257C 9.6273 23.7589 9.94428 23.5386 10.2904 23.3733C 13.9154 21.5065 17.5387 19.6355 21.1602 17.7604C 23.1526 16.7322 25.142 15.7019 27.1483 14.6908C 27.5342 14.499 27.6255 14.3378 27.3505 13.9926C 27.2399 13.848 27.1485 13.6897 27.0786 13.5216C 26.967 13.2714 26.9516 12.9888 27.0353 12.7278C 27.119 12.4667 27.2959 12.2456 27.5323 12.1065C 28.027 11.8209 28.6101 11.9571 28.9745 12.427C 29.1896 12.7021 29.2283 13.236 29.5975 13.2303C 29.907 13.2221 30.2086 12.8775 30.5111 12.6757L30.5111 12.6757L40.3097 6.41375C 42.1299 5.24847 43.9653 4.10935 45.7535 2.89863C 46.6825 2.27311 47.5894 2.04606 48.6067 2.59836L48.6067 2.59836L49.0909 3.43709C 49.1674 3.89807 49.0872 4.37153 48.8631 4.78191C 48.6391 5.19229 48.2841 5.51598 47.8547 5.70137C 46.8467 6.12632 45.9099 6.68462 44.9479 7.18577C 42.9676 8.22834 40.9771 9.25347 38.9896 10.2769C 36.3917 11.614 33.827 13.0153 31.1889 14.2729C 30.946 14.3899 30.6318 14.4608 30.5961 14.8089C 30.5781 14.9996 31.1423 15.9162 31.2991 15.9827C 31.3663 16.0039 31.438 16.0072 31.5069 15.9922C 31.5759 15.9772 31.6397 15.9445 31.6921 15.8973C 34.0277 14.4465 36.5987 13.4147 39.289 12.8485C 42.4282 12.1835 45.5908 11.6193 48.8256 12.2286C 51.4593 12.7276 53.8377 13.7287 55.7942 15.6187C 56.3054 16.1144 56.6337 16.7369 57.0849 17.273L57.0849 17.273L57.9904 18.8414z" stroke="none" fill="#292D39" fill-rule="nonzero" />
        <path d="M11.7989 35.1567L12.3737 34.8248C 17.6371 31.7859 22.9023 28.75 28.1692 25.7169C 28.7308 25.3926 29.0279 24.9866 29.0849 24.3393C 29.2706 22.228 29.9462 20.3301 31.5941 18.8864C 32.7985 17.8305 34.2151 17.1658 35.714 16.657C 35.9389 16.5795 36.1603 16.4924 36.4305 16.3926C 35.5626 18.5488 36.4562 20.4091 37.3091 22.256C 37.857 23.4437 38.4034 24.6419 39.2405 25.6684C 40.766 27.5379 43.1833 28.2064 45.3221 27.082C 48.5352 25.3956 51.6845 23.5754 54.4511 21.1795C 54.9206 20.7728 55.3007 20.282 55.7832 19.7903C 56.4279 21.1624 56.4902 22.4967 55.8417 23.8266C 55.0757 25.4066 53.8335 26.5851 52.4606 27.618C 48.3643 30.6982 43.8082 33.0321 39.3801 35.5713C 38.3706 36.1672 37.2626 36.5778 36.1086 36.7836C 34.2087 37.1053 32.7373 36.3209 31.5441 34.3449C 30.9517 33.3592 30.3943 32.3534 29.8194 31.3577C 29.3839 30.6033 29.0163 30.4472 28.1724 30.6825C 22.9291 32.1411 17.6856 33.6037 12.4417 35.0704C 12.253 35.1232 12.0609 35.1701 11.8704 35.22L11.8704 35.22L11.7989 35.1567z" stroke="none" fill="#FBFBFB" fill-rule="nonzero" />
        <path d="M47.3133 23.4567C 46.2925 23.9705 45.3126 24.7766 44.1156 25.1866C 42.8566 25.617 41.5808 25.2488 40.883 24.1341C 39.8104 22.4276 38.8469 20.6581 38.4025 18.6684C 38.1638 17.6065 38.397 16.7334 39.2705 16.0353C 40.0481 15.4196 40.8319 14.8954 41.8589 14.7152C 44.795 14.2024 47.6941 14.1159 50.555 15.1059C 51.8318 15.5442 53.0079 16.2331 54.0142 17.1323C 54.4115 17.4844 54.4273 17.7738 54.1523 18.1981C 53.605 19.0412 52.8533 19.6748 52.078 20.2775C 50.5961 21.4374 48.9768 22.3897 47.3133 23.4567z" stroke="none" fill="#FBFBFB" fill-rule="nonzero" />
        <path d="M13.7618 37.0139C 12.9583 38.7104 11.1801 39.4076 9.53369 38.7301C 8.76861 38.4026 8.15559 37.7984 7.81715 37.0384C 7.47871 36.2784 7.43977 35.4185 7.7081 34.6305C 7.98491 33.838 8.56191 33.1855 9.31485 32.8135C 10.0678 32.4415 10.9365 32.3798 11.734 32.6415C 11.0326 33.0464 10.3983 33.4127 9.76385 33.7789C 8.65509 34.4191 8.24724 35.4298 8.68284 36.4498C 9.17208 37.5996 10.0875 38.0091 11.395 37.6593C 12.169 37.4508 12.942 37.2372 13.7618 37.0139z" stroke="none" fill="#FBFBFB" fill-rule="nonzero" />
	</g>
</g>
</svg>