<svg width="36" height="34" viewBox="0 0 36 34" fill="none" xmlns="http://www.w3.org/2000/svg">
<path d="M8.12522 27.4559V22.9947C8.12522 21.5128 9.36009 20.1835 11.1149 20.1835C12.691 20.1835 14.1046 21.3447 14.1046 22.9947V27.2878C14.1046 30.267 11.4724 32.7421 8.30393 32.7421C5.1355 32.7421 2.50325 30.2518 2.50325 27.2878V17.8766C2.32452 9.29032 9.53882 2.33887 18.6704 2.33887C27.802 2.33887 35 9.29035 35 17.7085V27.1198C35 30.099 32.3678 32.5741 29.1994 32.5741C26.0309 32.5741 23.3987 30.099 23.3987 27.1198V22.8267C23.3987 21.3447 24.6336 20.0155 26.3884 20.0155C27.9645 20.0155 29.3781 21.1767 29.3781 22.8267V27.4559" stroke="#292D39" stroke-width="2" stroke-linecap="round" stroke-linejoin="round"/>
<path d="M25 13.468H23.5679C23.1789 13.468 22.8076 13.6581 22.6308 13.936L21.3048 16.1299C21.1103 16.4516 20.5622 16.4516 20.3678 16.1299L17.1146 10.7622C16.9201 10.4551 16.3897 10.4404 16.1952 10.7476L14.71 13.0146C14.5332 13.2925 14.1796 13.468 13.7907 13.468H12.5" stroke="#292D39" stroke-width="2" stroke-linecap="round" stroke-linejoin="round"/>
</svg>
