<?xml version="1.0" standalone="no"?>
<!DOCTYPE svg PUBLIC "-//W3C//DTD SVG 1.0//EN" "http://www.w3.org/TR/2001/REC-SVG-20010904/DTD/svg10.dtd">
<svg xmlns="http://www.w3.org/2000/svg" xmlns:xlink="http://www.w3.org/1999/xlink" id="body_1" width="42" height="42">

<g transform="matrix(0.9130435 0 0 0.9130435 0 0)">
	<g transform="matrix(1.1794872 0 0 1.1794872 0 0)">
		<g transform="matrix(0.1 0 -0 -0.1 0 39)">
            <path d="M160 365C 160 341 157 340 106 340C 57 340 49 337 25 308C -1 277 -2 274 2 162C 5 51 6 48 34 23C 62 -1 66 -1 202 2C 341 5 342 5 366 33C 388 59 390 70 390 166C 390 312 373 339 283 340C 233 340 230 342 230 365C 230 387 226 390 195 390C 164 390 160 387 160 365zM210 345C 210 321 205 310 195 310C 185 310 180 321 180 345C 180 369 185 380 195 380C 205 380 210 369 210 345zM135 310C 107 279 130 260 195 260C 260 260 283 279 255 310C 237 330 238 330 277 330C 303 330 327 322 344 309C 369 289 370 286 370 174C 370 17 373 20 195 20C 17 20 20 17 20 174C 20 286 21 289 46 309C 63 322 87 330 113 330C 152 330 153 330 135 310zM196 290C 209 290 222 295 226 301C 230 308 236 308 242 302C 260 284 240 270 195 270C 151 270 133 281 146 301C 150 309 155 309 163 301C 169 295 184 290 196 290z" stroke="none" fill="#000000" fill-rule="nonzero" />
            <path d="M182 238C 175 231 170 212 170 195C 170 169 164 161 135 147C 87 124 87 95 135 104C 163 110 170 108 170 95C 170 86 163 77 155 74C 147 70 140 62 140 54C 140 44 155 40 195 40C 235 40 250 44 250 54C 250 62 243 70 235 74C 227 77 220 86 220 95C 220 108 227 110 256 104C 288 98 292 100 288 116C 287 127 270 142 253 150C 227 162 220 171 220 196C 220 234 200 256 182 238zM210 186C 210 158 215 150 240 140C 283 122 284 113 244 118C 214 122 210 120 210 98C 210 85 215 69 222 62C 231 53 225 50 195 50C 165 50 159 53 168 62C 175 69 180 84 180 97C 180 117 175 120 143 121L143 121L105 122L143 137C 175 151 180 157 180 185C 180 202 183 220 186 223C 199 236 210 218 210 186z" stroke="none" fill="#000000" fill-rule="nonzero" />
		</g>
	</g>
</g>
</svg>