<svg width="98" height="98" viewBox="0 0 98 98" fill="none" xmlns="http://www.w3.org/2000/svg">
<circle cx="4" cy="4" r="4" fill="#0062F5"/>
<circle cx="4" cy="14" r="4" fill="#0062F5"/>
<circle cx="4" cy="24" r="4" fill="#0062F5"/>
<circle cx="4" cy="34" r="4" fill="#0062F5"/>
<circle cx="4" cy="44" r="4" fill="#0062F5"/>
<circle cx="4" cy="54" r="4" fill="#0062F5"/>
<circle cx="4" cy="64" r="4" fill="#0062F5"/>
<circle cx="4" cy="74" r="4" fill="#0062F5"/>
<circle cx="4" cy="84" r="4" fill="#0062F5"/>
<circle cx="4" cy="94" r="4" fill="#0062F5"/>
<circle cx="14" cy="4" r="4" fill="#0062F5"/>
<circle cx="14" cy="14" r="4" fill="#0062F5"/>
<circle cx="14" cy="24" r="4" fill="#0062F5"/>
<circle cx="14" cy="34" r="4" fill="#0062F5"/>
<circle cx="14" cy="44" r="4" fill="#0062F5"/>
<circle cx="14" cy="54" r="4" fill="#0062F5"/>
<circle cx="14" cy="64" r="4" fill="#0062F5"/>
<circle cx="14" cy="74" r="4" fill="#0062F5"/>
<circle cx="14" cy="84" r="4" fill="#0062F5"/>
<circle cx="14" cy="94" r="4" fill="#0062F5"/>
<circle cx="24" cy="4" r="4" fill="#0062F5"/>
<circle cx="24" cy="14" r="4" fill="#0062F5"/>
<circle cx="24" cy="24" r="4" fill="#0062F5"/>
<circle cx="24" cy="34" r="4" fill="#0062F5"/>
<circle cx="24" cy="44" r="4" fill="#0062F5"/>
<circle cx="24" cy="54" r="4" fill="#0062F5"/>
<circle cx="24" cy="64" r="4" fill="#0062F5"/>
<circle cx="24" cy="74" r="4" fill="#0062F5"/>
<circle cx="24" cy="84" r="4" fill="#0062F5"/>
<circle cx="24" cy="94" r="4" fill="#0062F5"/>
<circle cx="34" cy="4" r="4" fill="#0062F5"/>
<circle cx="34" cy="14" r="4" fill="#0062F5"/>
<circle cx="34" cy="24" r="4" fill="#0062F5"/>
<circle cx="34" cy="34" r="4" fill="#0062F5"/>
<circle cx="34" cy="44" r="4" fill="#0062F5"/>
<circle cx="34" cy="54" r="4" fill="#0062F5"/>
<circle cx="34" cy="64" r="4" fill="#0062F5"/>
<circle cx="34" cy="74" r="4" fill="#0062F5"/>
<circle cx="34" cy="84" r="4" fill="#0062F5"/>
<circle cx="34" cy="94" r="4" fill="#0062F5"/>
<circle cx="44" cy="4" r="4" fill="#0062F5"/>
<circle cx="44" cy="14" r="4" fill="#0062F5"/>
<circle cx="44" cy="24" r="4" fill="#0062F5"/>
<circle cx="44" cy="34" r="4" fill="#0062F5"/>
<circle cx="44" cy="44" r="4" fill="#0062F5"/>
<circle cx="44" cy="54" r="4" fill="#0062F5"/>
<circle cx="44" cy="64" r="4" fill="#0062F5"/>
<circle cx="44" cy="74" r="4" fill="#0062F5"/>
<circle cx="44" cy="84" r="4" fill="#0062F5"/>
<circle cx="44" cy="94" r="4" fill="#0062F5"/>
<circle cx="54" cy="4" r="4" fill="#0062F5"/>
<circle cx="54" cy="14" r="4" fill="#0062F5"/>
<circle cx="54" cy="24" r="4" fill="#0062F5"/>
<circle cx="54" cy="34" r="4" fill="#0062F5"/>
<circle cx="54" cy="44" r="4" fill="#0062F5"/>
<circle cx="54" cy="54" r="4" fill="#0062F5"/>
<circle cx="54" cy="64" r="4" fill="#0062F5"/>
<circle cx="54" cy="74" r="4" fill="#0062F5"/>
<circle cx="54" cy="84" r="4" fill="#0062F5"/>
<circle cx="54" cy="94" r="4" fill="#0062F5"/>
<circle cx="64" cy="4" r="4" fill="#0062F5"/>
<circle cx="64" cy="14" r="4" fill="#0062F5"/>
<circle cx="64" cy="24" r="4" fill="#0062F5"/>
<circle cx="64" cy="34" r="4" fill="#0062F5"/>
<circle cx="64" cy="44" r="4" fill="#0062F5"/>
<circle cx="64" cy="54" r="4" fill="#0062F5"/>
<circle cx="64" cy="64" r="4" fill="#0062F5"/>
<circle cx="64" cy="74" r="4" fill="#0062F5"/>
<circle cx="64" cy="84" r="4" fill="#0062F5"/>
<circle cx="64" cy="94" r="4" fill="#0062F5"/>
<circle cx="74" cy="4" r="4" fill="#0062F5"/>
<circle cx="74" cy="14" r="4" fill="#0062F5"/>
<circle cx="74" cy="24" r="4" fill="#0062F5"/>
<circle cx="74" cy="34" r="4" fill="#0062F5"/>
<circle cx="74" cy="44" r="4" fill="#0062F5"/>
<circle cx="74" cy="54" r="4" fill="#0062F5"/>
<circle cx="74" cy="64" r="4" fill="#0062F5"/>
<circle cx="74" cy="74" r="4" fill="#0062F5"/>
<circle cx="74" cy="84" r="4" fill="#0062F5"/>
<circle cx="74" cy="94" r="4" fill="#0062F5"/>
<circle cx="84" cy="4" r="4" fill="#0062F5"/>
<circle cx="84" cy="14" r="4" fill="#0062F5"/>
<circle cx="84" cy="24" r="4" fill="#0062F5"/>
<circle cx="84" cy="34" r="4" fill="#0062F5"/>
<circle cx="84" cy="44" r="4" fill="#0062F5"/>
<circle cx="84" cy="54" r="4" fill="#0062F5"/>
<circle cx="84" cy="64" r="4" fill="#0062F5"/>
<circle cx="84" cy="74" r="4" fill="#0062F5"/>
<circle cx="84" cy="84" r="4" fill="#0062F5"/>
<circle cx="84" cy="94" r="4" fill="#0062F5"/>
<circle cx="94" cy="4" r="4" fill="#0062F5"/>
<circle cx="94" cy="14" r="4" fill="#0062F5"/>
<circle cx="94" cy="24" r="4" fill="#0062F5"/>
<circle cx="94" cy="34" r="4" fill="#0062F5"/>
<circle cx="94" cy="44" r="4" fill="#0062F5"/>
<circle cx="94" cy="54" r="4" fill="#0062F5"/>
<circle cx="94" cy="64" r="4" fill="#0062F5"/>
<circle cx="94" cy="74" r="4" fill="#0062F5"/>
<circle cx="94" cy="84" r="4" fill="#0062F5"/>
<circle cx="94" cy="94" r="4" fill="#0062F5"/>
</svg>
