<svg width="48" height="48" viewBox="0 0 48 48" fill="none" xmlns="http://www.w3.org/2000/svg">
<path d="M37.2634 13.3948C37.1313 13.3728 36.9771 13.3728 36.845 13.3948C33.8062 13.2847 31.3839 10.7964 31.3839 7.71351C31.3839 4.56459 33.9163 2.03223 37.0652 2.03223C40.2141 2.03223 42.7465 4.58661 42.7465 7.71351C42.7245 10.7964 40.3022 13.2847 37.2634 13.3948Z" stroke="#0062F5" stroke-width="3" stroke-linecap="round" stroke-linejoin="round"/>
<path d="M34.9953 29.4253C38.0121 29.9318 41.3372 29.4033 43.6713 27.8399C46.7762 25.7699 46.7762 22.3788 43.6713 20.3089C41.3152 18.7454 37.946 18.2169 34.9292 18.7454" stroke="#0062F5" stroke-width="3" stroke-linecap="round" stroke-linejoin="round"/>
<path d="M10.7726 13.3948C10.9048 13.3728 11.0589 13.3728 11.191 13.3948C14.2298 13.2847 16.6521 10.7964 16.6521 7.71351C16.6521 4.56459 14.1197 2.03223 10.9708 2.03223C7.82188 2.03223 5.28952 4.58661 5.28952 7.71351C5.31154 10.7964 7.7338 13.2847 10.7726 13.3948Z" stroke="#0062F5" stroke-width="3" stroke-linecap="round" stroke-linejoin="round"/>
<path d="M13.0408 29.4253C10.024 29.9318 6.69888 29.4033 4.36471 27.8399C1.25982 25.7699 1.25982 22.3788 4.36471 20.3089C6.7209 18.7454 10.09 18.2169 13.1068 18.7454" stroke="#0062F5" stroke-width="3" stroke-linecap="round" stroke-linejoin="round"/>
<path d="M24.2013 29.3229C24.0779 29.3023 23.9339 29.3023 23.8105 29.3229C20.9722 29.22 18.7097 26.8959 18.7097 24.0164C18.7097 21.0752 21.075 18.71 24.0162 18.71C26.9574 18.71 29.3227 21.0958 29.3227 24.0164C29.3021 26.8959 27.0396 29.2406 24.2013 29.3229Z" stroke="#0062F5" stroke-width="3" stroke-linecap="round" stroke-linejoin="round"/>
<path d="M17.9001 37.0693C14.9366 39.0575 14.9366 42.3149 17.9001 44.3032C21.2629 46.5664 26.7695 46.5664 30.1323 44.3032C33.0958 42.3149 33.0958 39.0575 30.1323 37.0693C26.7905 34.8272 21.2629 34.8272 17.9001 37.0693Z" stroke="#0062F5" stroke-width="3" stroke-linecap="round" stroke-linejoin="round"/>
</svg>
