<svg width="43" height="41" viewBox="0 0 43 41" fill="none" xmlns="http://www.w3.org/2000/svg">
<path d="M21.5 25.625C24.4685 25.625 26.875 23.3305 26.875 20.5C26.875 17.6695 24.4685 15.375 21.5 15.375C18.5315 15.375 16.125 17.6695 16.125 20.5C16.125 23.3305 18.5315 25.625 21.5 25.625Z" stroke="#292D32" stroke-width="2" stroke-miterlimit="10" stroke-linecap="round" stroke-linejoin="round"/>
<path d="M3.58337 22.0031V18.9965C3.58337 17.2198 5.10629 15.7506 6.98754 15.7506C10.2305 15.7506 11.5563 13.564 9.92587 10.8819C8.99421 9.34437 9.54962 7.34562 11.18 6.45729L14.2796 4.76604C15.695 3.96312 17.5225 4.44146 18.3646 5.79104L18.5617 6.11562C20.1742 8.79771 22.8259 8.79771 24.4563 6.11562L24.6534 5.79104C25.4955 4.44146 27.323 3.96312 28.7384 4.76604L31.838 6.45729C33.4684 7.34562 34.0238 9.34437 33.0921 10.8819C31.4617 13.564 32.7875 15.7506 36.0305 15.7506C37.8938 15.7506 39.4346 17.2027 39.4346 18.9965V22.0031C39.4346 23.7798 37.9117 25.249 36.0305 25.249C32.7875 25.249 31.4617 27.4356 33.0921 30.1177C34.0238 31.6723 33.4684 33.654 31.838 34.5423L28.7384 36.2335C27.323 37.0365 25.4955 36.5581 24.6534 35.2085L24.4563 34.884C22.8438 32.2019 20.1921 32.2019 18.5617 34.884L18.3646 35.2085C17.5225 36.5581 15.695 37.0365 14.2796 36.2335L11.18 34.5423C9.54962 33.654 8.99421 31.6552 9.92587 30.1177C11.5563 27.4356 10.2305 25.249 6.98754 25.249C5.10629 25.249 3.58337 23.7798 3.58337 22.0031Z" stroke="#292D32" stroke-width="2" stroke-miterlimit="10" stroke-linecap="round" stroke-linejoin="round"/>
</svg>
