<svg width="24" height="26" viewBox="0 0 24 26" fill="none" xmlns="http://www.w3.org/2000/svg">
<path d="M2 2.13379H3.74001C4.82001 2.13379 5.67 3.12615 5.58 4.26791L4.75 14.8958C4.61 16.6351 5.89999 18.129 7.53999 18.129H18.19C19.63 18.129 20.89 16.8699 21 15.344L21.54 7.34104C21.66 5.56972 20.4 4.12918 18.73 4.12918H5.82001" stroke="#292D32" stroke-width="1.25" stroke-miterlimit="10" stroke-linecap="round" stroke-linejoin="round"/>
<path d="M16.25 23.4753C16.9404 23.4753 17.5 22.8781 17.5 22.1414C17.5 21.4048 16.9404 20.8076 16.25 20.8076C15.5596 20.8076 15 21.4048 15 22.1414C15 22.8781 15.5596 23.4753 16.25 23.4753Z" stroke="#292D32" stroke-width="1.25" stroke-miterlimit="10" stroke-linecap="round" stroke-linejoin="round"/>
<path d="M8.25 23.4753C8.94036 23.4753 9.5 22.8781 9.5 22.1414C9.5 21.4048 8.94036 20.8076 8.25 20.8076C7.55964 20.8076 7 21.4048 7 22.1414C7 22.8781 7.55964 23.4753 8.25 23.4753Z" stroke="#292D32" stroke-width="1.25" stroke-miterlimit="10" stroke-linecap="round" stroke-linejoin="round"/>
<path d="M9 8.53613H21" stroke="#292D32" stroke-width="1.25" stroke-miterlimit="10" stroke-linecap="round" stroke-linejoin="round"/>
</svg>
