<svg width="18" height="18" viewBox="0 0 18 18" fill="none" xmlns="http://www.w3.org/2000/svg">
<path d="M9 9C11.0711 9 12.75 7.32107 12.75 5.25C12.75 3.17893 11.0711 1.5 9 1.5C6.92893 1.5 5.25 3.17893 5.25 5.25C5.25 7.32107 6.92893 9 9 9Z" stroke="#292D32" stroke-width="1.2" stroke-linecap="round" stroke-linejoin="round"/>
<path d="M14.4075 11.8057L11.7525 14.4608C11.6475 14.5658 11.55 14.7608 11.5275 14.9033L11.385 15.9157C11.3325 16.2832 11.5875 16.5382 11.955 16.4857L12.9675 16.3432C13.11 16.3207 13.3125 16.2232 13.41 16.1182L16.065 13.4633C16.5225 13.0058 16.74 12.4732 16.065 11.7982C15.3975 11.1307 14.865 11.3482 14.4075 11.8057Z" stroke="#292D32" stroke-width="1.2" stroke-miterlimit="10" stroke-linecap="round" stroke-linejoin="round"/>
<path d="M14.025 12.1885C14.25 12.9985 14.88 13.6285 15.69 13.8535" stroke="#292D32" stroke-width="1.2" stroke-miterlimit="10" stroke-linecap="round" stroke-linejoin="round"/>
<path d="M2.5575 16.5C2.5575 13.5975 5.44502 11.25 9.00002 11.25C9.78002 11.25 10.53 11.3625 11.2275 11.5725" stroke="#292D32" stroke-width="1.2" stroke-linecap="round" stroke-linejoin="round"/>
</svg>
